<svg width="327" height="150"><g width="327" height="150" fill="none" transform="translate(40,15)"><g fill="black" stroke="white" transform="translate(0,110)"><g class="tick major" transform="translate(0,0)" style="opacity: 1;"><line y2="6" x2="0"></line><text y="9" x="0" dy=".71em" style="text-anchor: middle;">Jan</text></g><g class="tick major" transform="translate(87.37247870909906,0)" style="opacity: 1;"><line y2="6" x2="0"></line><text y="9" x="0" dy=".71em" style="text-anchor: middle;">Feb</text></g><g class="tick major" transform="translate(166.28955625280142,0)" style="opacity: 1;"><line y2="6" x2="0"></line><text y="9" x="0" dy=".71em" style="text-anchor: middle;">Mar</text></g><g class="tick major" transform="translate(253.5445988346033,0)" style="opacity: 1;"><line y2="6" x2="0"></line><text y="9" x="0" dy=".71em" style="text-anchor: middle;">Apr</text></g><path class="domain" d="M0,6V0H262V6"></path></g><g class="y axis" fill="none" stroke="white"><g class="tick major" transform="translate(0,110)" style="opacity: 1;"><line x2="262" y2="0"></line><text x="-3" y="0" dy=".32em" style="text-anchor: end;">0</text></g><g class="tick major" transform="translate(0,88)" style="opacity: 1;"><line x2="262" y2="0"></line><text x="-3" y="0" dy=".32em" style="text-anchor: end;">20</text></g><g class="tick major" transform="translate(0,66)" style="opacity: 1;"><line x2="262" y2="0"></line><text x="-3" y="0" dy=".32em" style="text-anchor: end;">40</text></g><g class="tick major" transform="translate(0,44)" style="opacity: 1;"><line x2="262" y2="0"></line><text x="-3" y="0" dy=".32em" style="text-anchor: end;">60</text></g><g class="tick major" transform="translate(0,22)" style="opacity: 1;"><line x2="262" y2="0"></line><text x="-3" y="0" dy=".32em" style="text-anchor: end;">80</text></g><g class="tick major" transform="translate(0,0)" style="opacity: 1;"><line x2="262" y2="0"></line><text x="-3" y="0" dy=".32em" style="text-anchor: end;">100</text></g><path class="domain" d="M262,0H0V110H262"></path></g><path class="line-b" d="M0,105.6Q2.254773644105782,105.6,2.8184670551322277,105.6C3.664007171671896,105.6,4.791393993724787,105.6,5.6369341102644555,105.6S7.609861048857013,105.6,8.455401165396681,105.6S10.428328103989243,105.6,11.273868220528911,105.6S13.246795159121469,105.6,14.092335275661137,105.6S16.065262214253696,105.6,16.910802330793363,105.6S18.88372926938592,105.6,19.72926938592559,105.6S21.70219632451815,105.6,22.547736441057822,105.6S24.520663379650383,105.43499999999999,25.36620349619005,105.6S27.339130434782607,106.7,28.184670551322274,106.7S30.157597489914835,105.765,31.0031376064545,105.6S32.97606454504706,105.6,33.821604661586726,105.6S35.79453160017928,105.43499999999999,36.64007171671895,105.6S38.612998655311515,106.7,39.45853877185118,106.7S41.431465710443746,105.765,42.27700582698341,105.6S44.24993276557598,105.6,45.095472882115644,105.6S47.0683998207082,105.6,47.91393993724787,105.6S49.88686687584043,105.6,50.7324069923801,105.6S52.70533393097266,105.6,53.55087404751232,105.6S55.52380098610488,105.6,56.36934110264455,105.6S58.34226804123711,105.6,59.18780815777678,105.6S61.160735096369336,105.6,62.006275212909,105.6S63.97920215150157,105.6,64.82474226804123,105.6S66.79766920663378,105.6,67.64320932317345,105.6S69.61613626176602,105.6,70.46167637830568,105.6S72.43460331689823,105.43499999999999,73.2801434334379,105.6S75.25307037203046,106.7,76.09861048857013,106.7S78.0715374271627,105.765,78.91707754370236,105.6S80.89000448229494,105.6,81.73554459883461,105.6S83.70847153742716,105.6,84.55401165396682,105.6S86.52693859255939,105.6,87.37247870909906,105.6S89.34540564769162,105.6,90.19094576423129,105.6S92.16387270282384,105.6,93.0094128193635,105.6S94.98233975795607,105.6,95.82787987449574,105.6S97.8008068130883,105.43499999999999,98.64634692962797,105.6S100.61927386822053,106.7,101.4648139847602,106.7S103.43774092335275,105.765,104.28328103989242,105.6S106.25620797848498,105.6,107.10174809502465,105.6S109.07467503361721,105.765,109.92021515015688,105.6S111.89314208874943,104.5,112.7386822052891,104.5S114.71160914388166,105.43499999999999,115.55714926042133,105.6S117.53007619901389,105.6,118.37561631555356,105.6S120.34854325414612,105.6,121.19408337068579,105.6S123.16701030927834,105.6,124.012550425818,105.6S125.98547736441057,105.6,126.83101748095024,105.6S128.8039444195428,105.6,129.64948453608247,105.6S131.62241147467503,105.6,132.4679515912147,105.6S134.44087852980724,105.6,135.2864186463469,105.6S137.25934558493947,105.6,138.10488570147913,105.6S140.0778126400717,105.6,140.92335275661137,105.6S142.89627969520393,105.6,143.7418198117436,105.6S145.71474675033613,105.6,146.5602868668758,105.6S148.5332138054684,105.6,149.37875392200806,105.6S151.3516808606006,105.6,152.19722097714026,105.6S154.17014791573285,105.6,155.01568803227252,105.6S156.98861497086506,105.6,157.83415508740472,105.6S159.8070820259973,105.6,160.65262214253696,105.6S162.62554908112955,105.6,163.47108919766922,105.6S165.44401613626175,105.6,166.28955625280142,105.6S168.26248319139398,105.6,169.10802330793365,105.6S171.0809502465262,105.43499999999999,171.92649036306588,105.6S173.89941730165845,106.04,174.7449574181981,106.7S176.71788435679065,109.505,177.56342447333031,110S179.5363514119229,110,180.38189152846257,110S182.3548184670551,110,183.20035858359478,110S185.17328552218734,110,186.018825638727,110S188.00936799641414,110,188.83729269385924,110S190.71039892424918,110,191.53832362169427,110S193.51125056028684,110,194.3567906768265,110S196.32971761541907,110,197.17525773195874,110S199.1481846705513,110,199.99372478709097,110S201.9666517256835,110,202.81219184222317,110S204.78511878081576,110,205.63065889735543,110S207.60358583594797,110,208.44912595248763,110S210.42205289108023,110,211.2675930076199,110S213.24051994621243,110,214.0860600627521,110S216.05898700134466,110,216.90452711788433,110S218.87745405647692,110,219.7229941730166,110S221.69592111160912,110,222.5414612281488,110S224.51438816674136,110,225.35992828328102,110S227.3328552218736,110,228.17839533841325,110S230.15132227700582,110,230.99686239354548,110S232.96978933213802,110,233.8153294486777,110S235.78825638727028,110,236.63379650380995,110S238.60672344240248,110,239.45226355894215,110S241.42519049753474,110,242.2707306140744,110S244.24365755266695,110,245.0891976692066,110S247.06212460779918,110,247.90766472433884,110S249.8805916629314,110,250.72613177947107,110S252.69905871806364,110,253.5445988346033,110S255.51752577319587,110,256.36306588973554,110S258.3359928283281,110,259.18153294486774,110Q259.7452263558942,110,261.99999999999994,110" stroke="blue" fill="#ffffff" style="stroke-width: 3px;"></path><path class="line-a" d="M0,61.6Q2.254773644105782,68.31,2.8184670551322277,67.1C3.664007171671896,65.285,4.791393993724787,51.644999999999996,5.6369341102644555,49.49999999999999S7.609861048857013,49.49999999999999,8.455401165396681,52.8S10.428328103989243,72.655,11.273868220528911,71.5S13.246795159121469,47.57500000000001,14.092335275661137,45.10000000000001S16.065262214253696,54.010000000000005,16.910802330793363,55S18.88372926938592,50.544999999999995,19.72926938592559,51.699999999999996S21.70219632451815,63.36000000000001,22.547736441057822,62.7S24.520663379650383,47.46499999999999,25.36620349619005,47.29999999999999S27.339130434782607,59.785,28.184670551322274,61.6S30.157597489914835,59.894999999999996,31.0031376064545,59.4S32.97606454504706,56.815,33.821604661586726,58.3S35.79453160017928,71.77499999999999,36.64007171671895,69.3S38.612998655311515,42.79,39.45853877185118,41.8S41.431465710443746,60.555,42.27700582698341,62.7S44.24993276557598,56.1,45.095472882115644,56.1S47.0683998207082,63.03,47.91393993724787,62.7S49.88686687584043,55.22,50.7324069923801,53.9S52.70533393097266,54.065,53.55087404751232,53.9S55.52380098610488,51.809999999999995,56.36934110264455,52.8S58.34226804123711,58.355,59.18780815777678,60.5S61.160735096369336,68.585,62.006275212909,67.1S63.97920215150157,51.42499999999999,64.82474226804123,50.599999999999994S66.79766920663378,62.095,67.64320932317345,61.6S69.61613626176602,47.46499999999999,70.46167637830568,47.29999999999999S72.43460331689823,57.53,73.2801434334379,60.5S75.25307037203046,70.07,76.09861048857013,67.1S78.0715374271627,42.845000000000006,78.91707754370236,40.7S80.89000448229494,51.48,81.73554459883461,52.8S83.70847153742716,48.01499999999999,84.55401165396682,49.49999999999999S86.52693859255939,61.545,87.37247870909906,62.7S89.34540564769162,58.190000000000005,90.19094576423129,57.2S92.16387270282384,55.605000000000004,93.0094128193635,56.1S94.98233975795607,60.995,95.82787987449574,60.5S97.8008068130883,52.13999999999999,98.64634692962797,52.8S100.61927386822053,62.755,101.4648139847602,64.9S103.43774092335275,66.44,104.28328103989242,67.1S106.25620797848498,72.435,107.10174809502465,69.3S109.07467503361721,46.53,109.92021515015688,46.2S111.89314208874943,65.285,112.7386822052891,67.1S114.71160914388166,58.959999999999994,115.55714926042133,58.3S117.53007619901389,60.39,118.37561631555356,62.7S120.34854325414612,72.54499999999999,121.19408337068579,73.69999999999999S123.16701030927834,72.05,124.012550425818,70.4S125.98547736441057,61.545,126.83101748095024,62.7S128.8039444195428,77.93499999999999,129.64948453608247,78.1S131.62241147467503,66.11,132.4679515912147,63.800000000000004S134.44087852980724,61.87500000000001,135.2864186463469,62.7S137.25934558493947,68.145,138.10488570147913,69.3S140.0778126400717,72.545,140.92335275661137,70.4S142.89627969520393,57.805,143.7418198117436,55S145.71474675033613,51.205,146.5602868668758,51.699999999999996S148.5332138054684,57.805,149.37875392200806,58.3S151.3516808606006,58.465,152.19722097714026,55S154.17014791573285,36.51999999999999,155.01568803227252,35.19999999999999S156.98861497086506,44.88,157.83415508740472,46.2S159.8070820259973,41.69,160.65262214253696,44S162.62554908112955,58.96,163.47108919766922,61.6S165.44401613626175,62.755,166.28955625280142,61.6S168.26248319139398,55.55,169.10802330793365,53.9S171.0809502465262,47.959999999999994,171.92649036306588,50.599999999999994S173.89941730165845,62.589999999999996,174.7449574181981,71.5S176.71788435679065,104.225,177.56342447333031,110S179.5363514119229,110,180.38189152846257,110S182.3548184670551,110,183.20035858359478,110S185.17328552218734,110,186.018825638727,110S188.00936799641414,110,188.83729269385924,110S190.71039892424918,110,191.53832362169427,110S193.51125056028684,110,194.3567906768265,110S196.32971761541907,110,197.17525773195874,110S199.1481846705513,110,199.99372478709097,110S201.9666517256835,110,202.81219184222317,110S204.78511878081576,110,205.63065889735543,110S207.60358583594797,110,208.44912595248763,110S210.42205289108023,110,211.2675930076199,110S213.24051994621243,110,214.0860600627521,110S216.05898700134466,110,216.90452711788433,110S218.87745405647692,110,219.7229941730166,110S221.69592111160912,110,222.5414612281488,110S224.51438816674136,110,225.35992828328102,110S227.3328552218736,110,228.17839533841325,110S230.15132227700582,110,230.99686239354548,110S232.96978933213802,110,233.8153294486777,110S235.78825638727028,110,236.63379650380995,110S238.60672344240248,110,239.45226355894215,110S241.42519049753474,110,242.2707306140744,110S244.24365755266695,110,245.0891976692066,110S247.06212460779918,110,247.90766472433884,110S249.8805916629314,110,250.72613177947107,110S252.69905871806364,110,253.5445988346033,110S255.51752577319587,110,256.36306588973554,110S258.3359928283281,110,259.18153294486774,110Q259.7452263558942,110,261.99999999999994,110" stroke="#fff" fill="none" style="stroke-width: 3px;"></path></g></svg>